<?xml version="1.0" encoding="utf-8"?>
<svg viewBox="0 0 800 800" xmlns="http://www.w3.org/2000/svg">
  <defs>
    <clipPath clipPathUnits="userSpaceOnUse" id="clipPath28020" fill="#923c3c">
      <path d="M 0,600 H 600 V 0 H 0 Z" id="path28018" fill="#923c3c"/>
    </clipPath>
  </defs>
  <g id="g28012" transform="matrix(1.351671, 0, 0, -1.346669, -11.039992, 799.967236)" style="">
    <g id="g28014">
      <g id="g28016" clip-path="url(#clipPath28020)">
        <path d="M 0.681,-2.458 H 602.055 V 598.916 H 0.681 Z" style="fill:#1c1a19;fill-opacity:1;fill-rule:evenodd;stroke:none" id="path28022"/>
        <path d="m 263.081,598.916 c 0.568,-8.694 -11.722,-31.369 -44.938,-48.195 -19.037,-9.643 -4.691,-20.616 17.035,-20.253 79.099,1.318 40.333,-52.58 67.382,-56.393 31.919,-4.5 17.572,-15.87 39.562,-23.472 14.257,-4.927 47.837,-10.864 55.657,-22.713 9.482,-14.365 12.886,4.901 36.737,14.736 23.962,9.881 32.223,52.359 32.322,74.921 0.132,30.297 8.023,56.907 24.911,81.369 z" style="fill:#2c2c1c;fill-opacity:1;fill-rule:evenodd;stroke:none" id="path28024"/>
        <path d="m 602.055,466.207 c -27.139,-5.801 -24.494,-31.583 -40.576,-26.395 -57.871,18.675 -77.373,-1.099 -114.346,-34.116 -13.781,-12.305 -72.612,-2.08 -86.394,3.679 -37.343,15.605 -125.596,44.313 -158.348,2.736 -36.328,-46.116 52.195,-83.899 -16.231,-91.911 -38.094,-4.46 -38.257,-53.79 -10.621,-58.346 21.36,-3.522 116.89,-5.727 137.016,2.484 72.12,29.419 27.824,-42.204 97.68,-8.116 31.615,15.427 50.21,-48.956 118.439,-15.54 33.627,16.468 42.187,16.751 73.381,37.128 z M 118.643,-2.458 c 33.313,21.489 -75.91,18.287 -71.082,50.767 3.98,26.773 48.202,-4.666 70.807,1.678 45.431,12.75 20.401,31.49 11.401,31.103 -53.316,-2.279 -35.547,47.144 -17.426,47.543 55.47,1.218 60.446,-27.426 121.015,-27.426 12.336,0 65.22,8.081 32.184,23.471 -35.33,16.459 -17.925,20.452 2.093,28.829 37.316,15.616 115.677,-14.015 97.404,29.976 -34.504,10.505 -25.605,21.519 -77.105,21.519 -60.725,0 -44.872,-16.093 -81.059,-16.093 -28.256,0 15.293,46.686 -64.369,22.185 -12.902,-3.968 -50.652,32.553 -86.835,30.284 -21.499,-1.349 -45.57,-42.42 -54.99,-42.507 V -2.458 Z M 602.055,198.871 V -2.458 H 229.186 c 7.809,58.75 119.965,48.202 161.947,58.607 78.355,20.581 -12.811,38.842 8.046,62.07 47.995,53.452 182.366,-22.138 137.059,42.53 -16.84,24.036 -1.491,50.706 17.151,55.241 15.592,3.795 31.992,-22.91 48.666,-17.119 M 0.681,277.81 v 188.397 c 70.851,9.547 73.975,-25.612 84.168,-39.709 7.868,-10.881 55.186,-28.166 50.105,-41.652 -8.119,-21.539 -37.385,-25.335 -73.593,-13.266 -17.953,5.984 -101.169,-30.495 -17.794,-50.944 14.867,-3.646 97.412,-28.503 21.369,-51.056 -78.097,-23.162 -38.193,9.645 -64.255,8.23 m 228.505,321.106 h 372.869 v -45.059 c -46.335,-29.475 -76.413,31.38 -83.932,30.441 -79.455,-9.933 60.145,-70.737 -14.942,-83.197 -148.037,-24.565 -136.306,44.813 -136.188,49.817 0.859,36.654 -8.268,15.581 -19.517,26.829 -9.164,9.163 -38.157,15.73 -44.53,4.827 -34.654,-59.283 -61.416,9.189 -73.76,16.342 m -228.505,0 h 120.245 c -0.779,-0.944 -1.542,-1.934 -2.283,-2.986 C 88.168,552.753 83.601,581.089 69.952,571.103 55.388,560.446 49.628,562.054 48.635,563.933 30.146,598.916 23.823,553.276 0.681,553.857 Z" style="fill:#222218;fill-opacity:1;fill-rule:evenodd;stroke:none" id="path28026"/>
        <path d="m 602.055,142.643 c -22.758,-5.399 -20.414,-36.919 -72.526,-26.552 -14.677,2.919 -5.184,63.718 -82.875,52.162 -15.486,-2.305 -28.475,-30.438 -92.6,-30.438 -18.314,0 -46.395,1.063 -32.713,-28.093 13.929,-29.682 112.05,-4.732 145.497,-33.656 27.109,-23.444 -8.639,-36.414 -29.449,-36.414 -12.934,0 -82.252,8.903 -71.865,-13.609 5.859,-12.694 88.933,-23.209 109.889,-11.795 27.432,14.944 19.596,4.796 44.851,29.288 12.598,12.218 51.709,11.685 81.791,10.717 z" style="fill:#2c2c1c;fill-opacity:1;fill-rule:evenodd;stroke:none" id="path28028"/>
        <path d="m 0.681,142.643 c 26.48,-31.152 66.041,64.108 113.402,9.587 7.947,-9.15 41.726,-4.396 66.506,-63.956 11.906,-28.613 40.081,-19.619 32.254,-39.703 -0.55,-1.411 -37.741,-25.776 -52.438,19.312 -4.808,14.752 -20.332,38.517 -39.61,37.748 -8.49,-0.339 -56.547,-5.109 -44.874,-21.518 C 79.832,78.615 99.582,43.224 89.667,41.262 51.72,33.752 57.2,17.392 26.035,47.698 17.134,56.354 7.141,57.472 0.681,54.253 Z" style="fill:#2c2c1c;fill-opacity:1;fill-rule:evenodd;stroke:none" id="path28030"/>
        <path d="m 149.426,341.686 c 23.321,0 36.785,-10.46 73.759,-10.46 28.886,0 33.425,10.178 48.806,37.012 20.229,35.292 68.966,-26.913 77.519,-27.954 28.392,-3.458 52.625,4.62 81.542,4.62 73.169,0 66.001,-59.844 19.634,-42.185 -27.763,10.573 -104.072,21.809 -127.154,1.54 -8.686,-7.628 -35.334,-24.833 -50.187,-24.833 -55.027,0 -37.905,7.927 -58.551,22.695 -8.373,5.99 -59.682,13.012 -73.611,13.012 -21.53,0 -4.502,26.553 8.243,26.553" style="fill:#2c2c1c;fill-opacity:1;fill-rule:evenodd;stroke:none" id="path28032"/>
        <path d="m 602.055,386.744 c -13.607,4.167 -49.981,32.543 -77.677,21.333 -27.979,-11.323 -61.519,-2.236 -42.438,36.392 9.214,18.656 12.214,23.636 37.058,16.966 32.24,-8.655 33.383,-28.38 75.451,-24.736 2.594,0.224 5.127,0.443 7.606,0.645 z" style="fill:#2c2c1c;fill-opacity:1;fill-rule:evenodd;stroke:none" id="path28034"/>
        <path d="m 0.681,437.344 c 32.489,-8.796 93.838,51.418 127.021,51.621 34.277,0.209 44.93,-14.651 79.658,-13.678 22.47,0.629 18.613,-21.791 6.459,-28.461 -29.695,-16.297 -91.167,-9.161 -99.531,-18.748 -11.408,-13.074 -32.136,-4.582 -37.081,-36.001 -4.754,-30.2 -39.742,-6.138 -50.886,-6.138 -7.889,0 -17.279,0.805 -25.64,0.805 z" style="fill:#2c2c1c;fill-opacity:1;fill-rule:evenodd;stroke:none" id="path28036"/>
        <path d="m 579.093,343.694 c -22.019,20.398 -103.047,40.485 -131.222,23.334 -11.885,-7.235 -65.158,-14.984 -79.588,-8.989 -14.902,6.192 -32.357,5.972 -43.862,-5.495 -8.962,-8.93 -20.337,-33.134 3.77,-32.184 57.486,2.266 59.44,8.537 112.968,26.139 62.371,20.509 37.606,-1.1 99.036,-22.599 15.153,-5.302 54.12,-31.103 47.886,10.139 -0.259,1.719 -7.252,8.046 -8.988,9.655" style="fill:#241e1b;fill-opacity:1;fill-rule:evenodd;stroke:none" id="path28038"/>
        <path d="m 602.055,228.232 c -0.4,-0.146 -19.259,3.621 -23.238,3.621 -35.602,0 -68.224,-8.222 -100.968,-19.242 -22.457,-7.558 -63.763,-1.455 -82.829,12.345 -25.068,18.142 -48.021,17.318 -76.14,13.999 -18.424,-2.172 -33.236,4.776 -16.437,21.45 29.599,29.378 169.898,18.919 216.442,18.919 27.678,0 51.546,10.061 81.196,12.277 0.674,0.05 1.328,0.112 1.974,0.179 z M 0.681,531.171 v -28.965 c 21.897,0 49.338,-4.271 64.735,-20.185 25.965,-26.839 60.577,-11.313 85.277,12.402 12.079,11.598 86.017,-29.612 100.922,7.783 7.023,17.625 -122.538,-0.15 -85.68,54.311 19.722,29.144 -47.292,39.413 -82.681,27.023 C 46.44,570.65 48.726,525.761 0.681,531.171 m 601.374,0 c -41.029,0.38 -53.386,29.256 -101.344,7.587 -30.06,-13.582 -63.304,-18.046 -96.071,-18.046 -73.441,0 -44.082,3.889 -101.865,-20.644 -47.649,-20.233 -3.835,-38.05 7.311,-56.668 30.012,-50.137 51.44,1.455 79.657,25.747 9.153,7.88 15.492,19.602 31.379,24.667 15.666,4.996 8.132,8.143 34.783,10.806 20.731,2.071 60.816,3.354 69.473,-19.197 3.23,-8.414 23.224,-14.773 36.346,-0.988 17.446,18.326 25.664,21.543 40.331,17.771 z m 0,67.745 c -93.301,-16.243 -106.02,-35.732 -133.82,-42.285 -49.243,-11.608 -35.909,19.142 -59.955,17.081 -28.729,-2.463 -28.947,22.673 -28.729,25.204 z m -530.243,0 c -8.76,-14.526 -25.791,-1.325 -38.449,-10.151 -9.94,-6.931 -25.328,-5.237 -31.041,4.896 -1.358,2.409 -0.925,1.727 -1.644,5.001 z M 0.681,291.78 c 7.659,1.878 30.557,2.278 37.205,-2.937 18.375,-14.409 27.802,-24.403 50.623,-24.403 9.89,0 21.102,-1.776 29.701,3.012 25.826,14.38 34.914,-23.525 63.84,-13.679 13.465,4.582 42.358,-14.654 2.484,-18.667 -8.951,-0.9 -33.289,-3.567 -37.783,-11.632 -13.149,-23.599 -22.418,-42.135 -54.759,-37.887 -23.1,3.035 -52.222,34.197 -64.968,34.197 -20.042,0 -18.509,8.448 -26.343,8.448 z M 224.46,168.29 c 3.812,3.296 63.905,12.24 70.538,7.815 17.109,-11.417 28.256,-19.075 49.173,-21.862 24.383,-3.249 16.844,19.367 50.208,-5 12.106,-8.843 37.23,-27.751 6.862,-31.036 -20.262,-2.191 -56.291,-6.087 -74.668,3.816 -45.114,24.315 -59.272,32.658 -111.83,29.265 -13.297,-0.858 -20.113,-12.056 -19.08,5.438 0.424,7.211 26.76,9.798 28.797,11.564 M 379.551,-2.458 c 2.255,9.133 26.728,25.936 39.586,26.651 30.422,1.696 36.803,0.028 63.599,-3.08 13.214,-1.532 25.586,-4.239 39.496,-0.137 24.237,7.146 56.036,20.909 79.823,18.171 V -2.458 Z M 0.681,39.147 C 2.094,36.65 24.12,16.39 28.436,15.578 49.573,11.605 61.083,20.751 70.541,0.429 c 0.482,-1.037 0.904,-1.996 1.271,-2.887 H 0.865 l -0.188,0.07 z" style="fill:#2a271c;fill-opacity:1;fill-rule:evenodd;stroke:none" id="path28040"/>
      </g>
    </g>
  </g>
</svg>